<svg width="20" height="28" viewBox="0 0 20 28" fill="none" xmlns="http://www.w3.org/2000/svg">
<path d="M15.1357 16.9424C16.4402 16.6247 17.5284 16.7313 18.3809 17.2607C19.2225 17.7827 19.7256 18.6953 19.7256 19.6963C19.7255 20.5008 19.3495 23.0945 14.6387 23.1904C13.5562 25.8478 10.7983 27.7391 7.56445 27.7393C3.38609 27.7393 0.000203466 24.5852 0 20.6924V15.5586H15.1357V16.9424ZM17.1797 18.9375C16.7927 18.6955 16.0532 18.743 15.1357 19.0557V20.6338H15.1279V20.6924C15.1279 20.8461 15.1231 20.9973 15.1123 21.1484C16.1703 21.0652 17.5604 20.7549 17.5605 19.6963C17.5605 19.4569 17.4609 19.1141 17.1797 18.9375ZM8.81738 11.7393C9.48298 11.7393 10.0212 12.2403 10.0215 12.8604C10.0215 13.4806 9.48313 13.9854 8.81738 13.9854C8.15173 13.9853 7.61328 13.4805 7.61328 12.8604C7.61352 12.2404 8.15187 11.7394 8.81738 11.7393ZM6.0459 7.38477C6.71149 7.38477 7.24976 7.8858 7.25 8.50586C7.25 9.12611 6.71164 9.63086 6.0459 9.63086C5.38024 9.63076 4.8418 9.12605 4.8418 8.50586C4.84204 7.88586 5.38039 7.38486 6.0459 7.38477ZM10.4766 0C11.1422 0 11.6804 0.501035 11.6807 1.12109C11.6807 1.74134 11.1423 2.24316 10.4766 2.24316C9.81091 2.24307 9.27246 1.74128 9.27246 1.12109C9.2727 0.501094 9.81105 9.56567e-05 10.4766 0Z" fill="black"/>
</svg>
