<svg width="31" height="25" viewBox="0 0 31 25" fill="none" xmlns="http://www.w3.org/2000/svg">
<path d="M12.5101 2.65082C12.5101 1.18818 13.6949 0 15.1609 0C16.6269 0 17.8117 1.18484 17.8117 2.65082C17.8117 4.1168 16.6269 5.30164 15.1609 5.30164C13.6983 5.30164 12.5101 4.1168 12.5101 2.65082ZM26.6478 7.1224C28.1104 7.1224 29.2986 5.93757 29.2986 4.47158C29.2986 3.0056 28.1138 1.82077 26.6478 1.82077C25.1818 1.82077 23.997 3.0056 23.997 4.47158C23.997 5.93422 25.1818 7.1224 26.6478 7.1224ZM15.1609 6.92828C13.0556 6.92828 11.3453 8.63525 11.3453 10.7439H18.9731C18.9731 8.63859 17.2662 6.92828 15.1576 6.92828H15.1609ZM30.4065 16.5308L29.6701 10.9012C29.4526 9.47869 28.1305 8.46455 26.6545 8.67876C25.1885 8.89296 24.2246 10.3389 24.4455 11.8048L24.499 17.0362C24.2212 17.0362 24.5626 17.0596 24.5492 17.0596H21.5905C20.3253 17.0596 19.3011 18.0838 19.3011 19.349V24.8146H21.6641L22.0055 19.8945L27.0662 20.42C29.1346 20.42 30.7177 18.5792 30.4031 16.5342L30.4065 16.5308ZM3.79786 7.1224C5.26049 7.1224 6.44868 5.93757 6.44868 4.47158C6.44868 3.0056 5.26384 1.82077 3.79786 1.82077C2.33187 1.82077 1.14704 3.0056 1.14704 4.47158C1.14704 5.93757 2.33187 7.1224 3.79786 7.1224ZM8.85182 17.0596H5.89307C5.89307 17.0596 6.22443 17.0362 5.94328 17.0362L5.99683 11.8048C6.22108 10.3389 5.25715 8.89296 3.78781 8.67876C2.31179 8.46455 0.989727 9.47869 0.772172 10.9012L0.0391804 16.5308C-0.27209 18.5758 1.31104 20.4167 3.37613 20.4167L8.43679 19.8912L8.77818 24.8113H11.1412V19.3456C11.1412 18.0805 10.117 17.0563 8.85182 17.0563V17.0596ZM22.6615 15.0414V12.2734H7.95817V15.0414H13.9259V24.8146H16.6938V15.0414H22.6615Z" fill="black"/>
</svg>
