<svg width="32" height="19" viewBox="0 0 32 19" fill="none" xmlns="http://www.w3.org/2000/svg">
<path d="M7.80859 13.29C9.14327 13.2939 10.2188 14.4387 10.2188 15.8506C10.2153 17.2626 9.13269 18.4004 7.79785 18.4004C6.4631 18.3967 5.38437 17.2518 5.3877 15.8398C5.39111 14.4278 6.47373 13.29 7.80859 13.29ZM24.7422 13.29C26.0769 13.2939 27.1523 14.4387 27.1523 15.8506C27.1489 17.2626 26.0663 18.4004 24.7314 18.4004C23.3967 18.3967 22.318 17.2518 22.3213 15.8398C22.3247 14.4278 23.4073 13.29 24.7422 13.29ZM29.4834 0C30.3502 0.000233376 31.0496 0.743872 31.0498 1.65723V15.8574H28.7969C28.8036 13.4848 26.9871 11.5561 24.7441 11.5488C22.5013 11.5418 20.6787 13.4634 20.6719 15.8359V15.8574H11.9248V15.8467C11.9248 13.474 10.1053 11.5488 7.8623 11.5488C5.61938 11.5489 3.79984 13.4741 3.7998 15.8467V15.8574H0V9.52344C0 8.09333 1.09631 6.93359 2.44824 6.93359H6.26758L7.20703 0H29.4834ZM18.0293 4.73047C17.664 5.18911 17.1106 5.48242 16.5029 5.48242C15.8954 5.48237 15.3526 5.19341 14.9873 4.74219C14.622 5.19341 14.0553 5.48236 13.4717 5.48242C12.8881 5.48242 12.3624 5.21136 11.9971 4.78906V9.60645H29.6807V5.17871C29.3804 5.36996 29.0291 5.48234 28.6504 5.48242C28.0427 5.48242 27.4991 5.19654 27.1338 4.74512C26.7651 5.19651 26.2258 5.48242 25.6182 5.48242C25.0106 5.48235 24.4678 5.19649 24.1025 4.74512C23.7339 5.19651 23.1945 5.48238 22.5869 5.48242C21.9794 5.48242 21.4366 5.19337 21.0713 4.74219C20.7061 5.19343 20.1665 5.48227 19.5557 5.48242C18.9446 5.48242 18.3946 5.18911 18.0293 4.73047ZM12.458 3.36914C12.458 3.9613 12.9149 4.44514 13.4746 4.44531C14.0345 4.44531 14.4922 3.96141 14.4922 3.36914V1.91016C14.2191 1.89932 13.9494 1.88847 13.6865 1.87402C13.26 1.85236 12.8607 1.83107 12.458 1.83105V3.36914ZM15.4893 3.36914C15.4893 3.96141 15.9469 4.44531 16.5068 4.44531C17.0666 4.44513 17.5234 3.96129 17.5234 3.36914V1.92871H16.5371C16.1583 1.92871 15.8135 1.92481 15.4893 1.9248V3.36914ZM18.5449 1.9209V3.36914C18.5449 3.96141 19.0026 4.44531 19.5625 4.44531C20.1222 4.44503 20.5791 3.96124 20.5791 3.36914V1.9209H18.5449ZM21.5762 1.91406V3.36621C21.5764 3.9583 22.034 4.44238 22.5938 4.44238C23.1535 4.4423 23.6111 3.95825 23.6113 3.36621V1.91406H21.5762ZM24.6074 3.36621C24.6076 3.95822 25.0653 4.44226 25.625 4.44238C26.1848 4.44238 26.6424 3.9583 26.6426 3.36621V1.96094C26.0144 1.94288 25.3448 1.92812 24.6074 1.9209V3.36621ZM27.6357 3.3623C27.6358 3.9545 28.0935 4.43843 28.6533 4.43848C29.2132 4.43848 29.6708 3.95452 29.6709 3.3623V2.10547C29.647 2.10186 29.6196 2.10156 29.5957 2.10156C29.3431 2.08712 29.0905 2.06913 28.8379 2.05469C28.4521 2.02941 28.0522 2.01122 27.6357 1.99316V3.3623Z" fill="black"/>
</svg>
