<svg width="24" height="23" viewBox="0 0 24 23" fill="none" xmlns="http://www.w3.org/2000/svg">
<path d="M17.8692 7.58664L17.8844 3.64708H18.8916L21.9181 1.38609L20.883 0L18.3168 1.91764H13.3268V3.64708H16.155L16.1397 7.55612C13.9067 7.80281 11.9738 9.12533 10.9412 11.1345L10.9794 11.1549C10.8344 11.4295 10.7149 11.7144 10.6106 12.0043C10.252 11.9662 9.8756 11.9255 9.4941 11.8873L10.018 11.0277L10.9082 11.0175L10.8904 9.2881L6.99659 9.32879L7.01439 11.0582L7.9783 11.0481L7.56629 11.722C6.91012 11.6762 6.30736 11.6483 5.83685 11.6457L4.80173 7.29161L7.33739 7.51542L7.48999 5.79107L0.152597 5.14762L0 6.87197L2.98328 7.13647L4.13285 11.9738C3.34443 12.3044 2.66537 12.8512 2.17197 13.5735C1.49545 14.5629 1.24621 15.7557 1.46748 16.9332C1.64297 17.8666 2.09821 18.6805 2.73149 19.301L1.89221 20.7863L0.747727 20.799L0.76553 22.5285L4.65931 22.4878L4.6415 20.7583L3.89123 20.766L4.18117 20.2522C4.71017 20.4709 5.28241 20.5905 5.87754 20.5905C6.15222 20.5905 6.42944 20.565 6.70666 20.5142C7.24838 20.4125 9.43052 19.4943 11.7525 18.4007L11.7271 18.4236C13.0013 19.9699 14.8961 20.8575 16.8798 20.8575C17.0553 20.8575 17.2333 20.8499 17.4088 20.8372C19.1866 20.6948 20.799 19.8707 21.9562 18.5152C23.1109 17.1596 23.6704 15.4327 23.528 13.6575C23.2762 10.5089 20.8652 8.03934 17.8717 7.58918L17.8692 7.58664ZM6.38366 18.8153C5.65882 18.9501 4.92635 18.7975 4.31851 18.3804C3.71066 17.9658 3.30119 17.3376 3.1664 16.6128C3.0316 15.8879 3.1842 15.1555 3.6013 14.5476C4.01586 13.9398 4.64405 13.5303 5.36889 13.3955C5.4579 13.3777 5.6105 13.3701 5.81142 13.3701C6.01234 13.3701 6.26158 13.3777 6.54897 13.393L5.88263 14.484C5.78344 14.484 5.68171 14.4917 5.57998 14.512C4.7 14.6773 4.12013 15.5242 4.28544 16.4042C4.45076 17.2842 5.29767 17.8641 6.17765 17.6988C7.05763 17.5334 7.6375 16.6865 7.47219 15.8066C7.44675 15.6667 7.40097 15.537 7.34248 15.4149L8.48696 13.5405C10.8268 13.7516 13.8813 14.128 15.6387 14.4612C13.1742 15.86 7.59681 18.5889 6.3862 18.8153H6.38366ZM17.2689 19.1103C15.7989 19.2273 14.362 18.6779 13.3396 17.6326C15.7023 16.4627 17.8564 15.2597 18.2023 14.7002C18.3524 14.4561 18.3956 14.1814 18.3219 13.922C18.1642 13.3701 18.037 12.9301 12.3884 12.2154C12.7571 11.4041 13.3396 10.6971 14.0695 10.1884L14.0339 10.1376C14.7435 9.63907 15.5827 9.32879 16.4831 9.25503C19.1993 9.04394 21.5849 11.0735 21.8011 13.7897C22.0173 16.506 19.9826 18.8916 17.2664 19.1077L17.2689 19.1103Z" fill="black"/>
</svg>
