<svg width="27" height="32" viewBox="0 0 27 32" fill="none" xmlns="http://www.w3.org/2000/svg">
<path d="M14.8975 8.98047C14.8974 13.2798 14.4379 16.934 8.80859 18.1074C6.68345 18.5508 5.74183 20.0794 5.76465 21.3115C5.79409 22.8598 7.18586 24.0561 9.39258 24.4277C10.4388 24.6037 11.674 24.5642 12.8701 24.5283H12.8643C15.3217 24.4534 17.8575 24.3755 19.5459 26.0146C20.6705 27.1066 21.2188 28.7761 21.2188 31.1133H19.2627C19.2627 29.3302 18.9102 28.124 18.1865 27.4199C17.0945 26.3575 15.0702 26.4192 12.9287 26.4844C11.638 26.5267 10.3017 26.566 9.06641 26.3574C6.67709 25.9532 3.86734 24.4016 3.80859 21.3506C3.76296 18.8895 5.65344 16.7671 8.41113 16.1934C12.5116 15.3361 12.9424 13.3383 12.9424 8.98047H14.8975ZM21.4795 5.19238C23.1778 5.19242 24.5537 6.56833 24.5537 8.2666C24.5536 8.89885 24.3643 9.48574 24.0352 9.97461C24.9836 10.7309 25.5928 11.8915 25.5928 13.1953C25.5927 13.9384 25.391 14.6328 25.0488 15.2324C25.8897 16.119 26.4082 17.3091 26.4082 18.626C26.408 21.3476 24.2011 23.5537 21.4795 23.5537C18.7578 23.5537 16.551 21.3476 16.5508 18.626C16.5508 17.3091 17.0692 16.1158 17.9102 15.2324C17.5647 14.6328 17.3653 13.9384 17.3652 13.1953C17.3652 11.8882 17.9753 10.7276 18.9238 9.97461C18.5979 9.48574 18.4053 8.89885 18.4053 8.2666C18.4053 6.56831 19.7812 5.19238 21.4795 5.19238ZM9.06543 6.26855H7.6377L9.46582 9.08105H8.03223L9.78516 12.498H5.13086V15.0303H3.83301V12.498H0L1.75391 9.08105H0.322266L2.15137 6.26855H0.723633L4.89258 0L9.06543 6.26855Z" fill="black"/>
</svg>
